<svg width="62" height="62" viewBox="0 0 62 62" fill="none" xmlns="http://www.w3.org/2000/svg">
<path d="M62 31C62 48.1208 48.1208 62 31 62C13.8792 62 0 48.1208 0 31C0 13.8792 13.8792 0 31 0C48.1208 0 62 13.8792 62 31Z" fill="#EEEBFF"/>
<path d="M26.1133 38.4687C30.719 41.1278 35.0948 39.8555 37.822 35.1317C40.5408 30.4227 39.4462 26.0117 34.9439 23.4123L29.7182 20.3953L20.9909 35.5113L26.1133 38.4687ZM25.0971 34.723L31.0886 24.3455L33.421 25.6921C36.4914 27.4648 37.1045 30.1019 35.1059 33.5635C33.0988 37.0399 30.5 37.8424 27.3483 36.0228L25.0971 34.723Z" fill="#7B61FF"/>
</svg>
